<svg width="18" height="20" viewBox="0 0 18 20" fill="none" xmlns="http://www.w3.org/2000/svg">
<path d="M0 4.41212C0 4.66877 0.105796 4.91491 0.294113 5.09639C0.482431 5.27787 0.737844 5.37983 1.00417 5.37983H1.53972V16.8149C1.54061 17.6593 1.88901 18.4688 2.50849 19.0659C3.12797 19.6631 3.96793 19.999 4.84409 20H13.1559C14.0321 19.999 14.872 19.6631 15.4915 19.0659C16.111 18.4688 16.4594 17.6593 16.4603 16.8149V5.37983H16.9958C17.2622 5.37983 17.5176 5.27787 17.7059 5.09639C17.8942 4.91491 18 4.66877 18 4.41212C18 4.15546 17.8942 3.90932 17.7059 3.72784C17.5176 3.54636 17.2622 3.4444 16.9958 3.4444H13.4813V2.44573C13.4813 1.09738 12.3432 0 10.9441 0H7.05594C5.6568 0 4.51874 1.09674 4.51874 2.44573V3.44376H1.00417C0.737844 3.44376 0.482431 3.54571 0.294113 3.7272C0.105796 3.90868 0 4.15482 0 4.41147V4.41212ZM6.52708 2.44637C6.52708 2.16445 6.76406 1.93607 7.05594 1.93607H10.9441C11.2359 1.93607 11.4729 2.16445 11.4729 2.44637V3.4444H6.52641V2.44573L6.52708 2.44637ZM3.54805 5.37983H14.4519V16.8149C14.4516 17.1461 14.315 17.4637 14.072 17.698C13.829 17.9322 13.4996 18.0641 13.1559 18.0646H4.84409C4.50041 18.0641 4.17096 17.9322 3.928 17.698C3.68504 17.4637 3.54841 17.1461 3.54805 16.8149V5.37983Z" fill="#2D70D6"/>
</svg>
