<svg width="16" height="16" viewBox="0 0 16 16" fill="none" xmlns="http://www.w3.org/2000/svg">
<g opacity="0.5">
<path d="M2 4.27472C2 4.44583 2.07053 4.60992 2.19608 4.73091C2.32162 4.85189 2.4919 4.91986 2.66944 4.91986H3.02648V12.5433C3.02707 13.1062 3.25934 13.6459 3.67232 14.0439C4.08531 14.442 4.64529 14.666 5.2294 14.6666H10.7706C11.3547 14.666 11.9147 14.442 12.3277 14.0439C12.7407 13.6459 12.9729 13.1062 12.9735 12.5433V4.91986H13.3306C13.5081 4.91986 13.6784 4.85189 13.8039 4.73091C13.9295 4.60992 14 4.44583 14 4.27472C14 4.10362 13.9295 3.93953 13.8039 3.81854C13.6784 3.69755 13.5081 3.62958 13.3306 3.62958H10.9875V2.9638C10.9875 2.0649 10.2288 1.33331 9.29604 1.33331H6.70396C5.7712 1.33331 5.0125 2.06447 5.0125 2.9638V3.62915H2.66944C2.4919 3.62915 2.32162 3.69712 2.19608 3.81811C2.07053 3.9391 2 4.10319 2 4.27429V4.27472ZM6.35138 2.96423C6.35138 2.77628 6.50937 2.62402 6.70396 2.62402H9.29604C9.49063 2.62402 9.64862 2.77628 9.64862 2.96423V3.62958H6.35094V2.9638L6.35138 2.96423ZM4.36537 4.91986H11.6346V12.5433C11.6344 12.7641 11.5433 12.9758 11.3813 13.132C11.2194 13.2881 10.9997 13.376 10.7706 13.3764H5.2294C5.00027 13.376 4.78064 13.2881 4.61867 13.132C4.4567 12.9758 4.3656 12.7641 4.36537 12.5433V4.91986V4.91986Z" fill="currentColor"/>
<path d="M6.33619 12.188C6.51374 12.188 6.68401 12.12 6.80956 11.9991C6.9351 11.8781 7.00564 11.714 7.00564 11.5429V6.75336C7.00564 6.58225 6.9351 6.41816 6.80956 6.29717C6.68401 6.17619 6.51374 6.10822 6.33619 6.10822C6.15864 6.10822 5.98837 6.17619 5.86282 6.29717C5.73728 6.41816 5.66675 6.58225 5.66675 6.75336V11.5429C5.66675 11.714 5.73728 11.8781 5.86282 11.9991C5.98837 12.12 6.15864 12.188 6.33619 12.188V12.188ZM9.66377 12.188C9.84132 12.188 10.0116 12.12 10.1371 11.9991C10.2627 11.8781 10.3332 11.714 10.3332 11.5429V6.75336C10.3332 6.58225 10.2627 6.41816 10.1371 6.29717C10.0116 6.17619 9.84132 6.10822 9.66377 6.10822C9.48623 6.10822 9.31595 6.17619 9.1904 6.29717C9.06486 6.41816 8.99433 6.58225 8.99433 6.75336V11.5429C8.99433 11.714 9.06486 11.8781 9.1904 11.9991C9.31595 12.12 9.48623 12.188 9.66377 12.188V12.188Z" fill="currentColor"/>
</g>
</svg>
