<svg width="40" height="40" viewBox="0 0 49 49" fill="none" xmlns="http://www.w3.org/2000/svg">
<path d="M24.5 44.9062C24.7654 44.9065 25.0258 44.8356 25.2543 44.7012C25.2546 44.701 25.2549 44.7009 25.2551 44.7007L44.1646 33.6449L44.1647 33.6448C44.8777 33.2277 45.1175 32.3113 44.702 31.5978C44.286 30.8837 43.3703 30.6419 42.6567 31.0594L24.5 41.6742L6.34311 31.0594C6.34306 31.0594 6.34302 31.0594 6.34298 31.0593C5.6293 30.6419 4.71369 30.8837 4.2978 31.5978C3.88225 32.3113 4.12204 33.2277 4.83507 33.6448L4.83518 33.6449L23.7448 44.7008C23.9736 44.8354 24.2342 44.9065 24.5 44.9062ZM24.5 44.9062C24.4998 44.9062 24.4995 44.9062 24.4993 44.9062L24.5 44.4062L24.5007 44.9062C24.5005 44.9062 24.5002 44.9062 24.5 44.9062ZM24.5 36.926C24.7654 36.9263 25.0258 36.8554 25.2543 36.721C25.2546 36.7208 25.2549 36.7206 25.2551 36.7205L44.1646 25.6647L44.1647 25.6646C44.8777 25.2475 45.1175 24.3311 44.702 23.6176L44.2699 23.8692L44.702 23.6176C44.286 22.9035 43.3703 22.6616 42.6566 23.0792L24.5 33.694L6.34311 23.0792C5.62941 22.6616 4.71371 22.9035 4.2978 23.6176C3.88225 24.3311 4.12204 25.2475 4.83507 25.6646L4.83518 25.6647L23.7448 36.7206C23.9736 36.8552 24.2342 36.9263 24.5 36.926ZM24.5 36.926C24.4998 36.926 24.4995 36.926 24.4993 36.926L24.5 36.426L24.5007 36.926C24.5005 36.926 24.5002 36.926 24.5 36.926ZM4.84102 17.8102L4.84129 17.8104L23.7507 28.7434C23.751 28.7436 23.7513 28.7437 23.7516 28.7439C23.9788 28.8761 24.237 28.9458 24.5 28.9458C24.763 28.9458 25.0212 28.8761 25.2484 28.7439C25.2487 28.7437 25.249 28.7436 25.2493 28.7434L44.1587 17.8104L44.1589 17.8102C44.3863 17.6786 44.5747 17.4895 44.7057 17.2624L44.7058 17.2623C45.1183 16.5465 44.8742 15.6308 44.159 15.2167L44.1585 15.2164L25.2478 4.29231L25.2478 4.29229L25.2446 4.29049C24.7827 4.02817 24.2173 4.02817 23.7554 4.29049L23.7554 4.29048L23.7522 4.29231L4.84145 15.2164L4.84109 15.2166C4.61368 15.3482 4.42529 15.5374 4.29429 15.7645L4.29424 15.7646C3.88169 16.4803 4.12581 17.3961 4.84102 17.8102ZM8.58101 16.5146L24.5 7.31917L40.419 16.5146L24.5 25.7193L8.58101 16.5146Z" fill="white" stroke="white"/>
</svg>
