<svg width="16" height="14" viewBox="0 0 20 18" fill="none" xmlns="http://www.w3.org/2000/svg">
<path d="M11.3836 0.00348946C6.3676 -0.136483 2.25822 3.95272 2.25822 9.00174H0.494244C0.0507853 9.00174 -0.166017 9.54164 0.149332 9.85158L2.89877 12.651C3.09587 12.851 3.40136 12.851 3.59845 12.651L6.34789 9.85158C6.65339 9.54164 6.43659 9.00174 5.99313 9.00174H4.22915C4.22915 5.1025 7.36292 1.95311 11.2259 2.0031C14.8919 2.05309 17.9764 5.18249 18.0256 8.90176C18.0749 12.811 14.9707 16.0004 11.1274 16.0004C9.5408 16.0004 8.07246 15.4505 6.90961 14.5207C6.51542 14.2107 5.96356 14.2407 5.6088 14.6007C5.1949 15.0206 5.22447 15.7304 5.68763 16.0904C7.18554 17.2901 9.06777 18 11.1274 18C16.104 18 20.1345 13.8308 19.9966 8.74179C19.8685 4.0527 16.0054 0.133464 11.3836 0.00348946ZM10.881 5.00252C10.477 5.00252 10.1419 5.34245 10.1419 5.75237V9.43166C10.1419 9.78159 10.3292 10.1115 10.6248 10.2915L13.6995 12.1411C14.0542 12.3511 14.5075 12.2311 14.7145 11.8812C14.9214 11.5213 14.8032 11.0613 14.4583 10.8514L11.6201 9.14172V5.74238C11.6201 5.34245 11.2851 5.00252 10.881 5.00252Z" fill="white"/>
</svg>
