<svg width="60" height="60" viewBox="0 0 60 60" fill="none" xmlns="http://www.w3.org/2000/svg">
<g clip-path="url(#clip0_8_6380)">
<path d="M51.3333 19.741L35.3334 6.8694C33.8667 5.66555 31.9679 5 30.0001 5C28.0323 5 26.1335 5.66555 24.6668 6.8694L8.6669 19.741C7.81989 20.4361 7.14398 21.2889 6.68417 22.2425C6.22437 23.1961 5.99122 24.2286 6.00025 25.2714V46.6588C6.00025 48.6058 6.8431 50.4731 8.34338 51.8498C9.84366 53.2266 11.8785 54 14.0002 54H46C48.1217 54 50.1565 53.2266 51.6568 51.8498C53.1571 50.4731 53.9999 48.6058 53.9999 46.6588V25.2469C54.0052 24.2083 53.7702 23.1805 53.3105 22.2313C52.8508 21.2822 52.1769 20.4334 51.3333 19.741ZM35.3334 49.1059H24.6668V36.8705C24.6668 36.2215 24.9477 35.5991 25.4478 35.1402C25.9479 34.6812 26.6262 34.4234 27.3334 34.4234H32.6667C33.374 34.4234 34.0522 34.6812 34.5523 35.1402C35.0524 35.5991 35.3334 36.2215 35.3334 36.8705V49.1059ZM48.6666 46.6588C48.6666 47.3078 48.3857 47.9302 47.8856 48.3891C47.3855 48.848 46.7072 49.1059 46 49.1059H40.6667V36.8705C40.6667 34.9235 39.8238 33.0562 38.3235 31.6795C36.8233 30.3027 34.7884 29.5293 32.6667 29.5293H27.3334C25.2117 29.5293 23.1769 30.3027 21.6766 31.6795C20.1763 33.0562 19.3335 34.9235 19.3335 36.8705V49.1059H14.0002C13.293 49.1059 12.6147 48.848 12.1146 48.3891C11.6145 47.9302 11.3335 47.3078 11.3335 46.6588V25.2469C11.334 24.8995 11.4151 24.5561 11.5715 24.2396C11.7278 23.9232 11.9558 23.6409 12.2402 23.4116L28.2401 10.5645C28.7267 10.1722 29.3523 9.9558 30.0001 9.9558C30.6478 9.9558 31.2734 10.1722 31.7601 10.5645L47.76 23.4116C48.0444 23.6409 48.2724 23.9232 48.4287 24.2396C48.585 24.5561 48.6661 24.8995 48.6666 25.2469V46.6588Z" fill="white"/>
</g>
<defs>
<clipPath id="clip0_8_6380">
<rect width="60" height="60" fill="white"/>
</clipPath>
</defs>
</svg>
