<svg width="40" height="46" viewBox="0 0 60 68" fill="none" xmlns="http://www.w3.org/2000/svg">
<path d="M57.8029 0C57.695 0.00650363 57.5876 0.0217065 57.4818 0.0453897H49.2737C47.6296 0.0453897 46.131 0.734388 44.992 1.82721C43.8242 0.689158 42.2973 0.0539199 40.7103 0.0453897H32.4809C32.3596 0.0190274 32.2364 0.00381106 32.1126 0C31.6969 0.00745935 31.2922 0.142682 30.948 0.389688C30.9395 0.389633 30.9309 0.389633 30.9223 0.389688C30.9064 0.404555 30.8907 0.419716 30.8752 0.435077C30.8343 0.463842 30.7943 0.494179 30.7553 0.525857C30.7496 0.525833 30.7439 0.525833 30.7382 0.525857C30.6892 0.568954 30.6421 0.614478 30.5969 0.662026C30.5941 0.66202 30.5912 0.66202 30.5883 0.662026C30.3526 0.916974 30.1769 1.22721 30.0758 1.56761C29.9746 1.908 29.9507 2.26897 30.006 2.62098V9.05083C30.006 14.0388 33.8596 18.1199 38.5695 18.1199H42.8512V24.9217C42.8512 28.7308 40.0252 31.7236 36.4286 31.7236H2.1749C1.84978 31.7181 1.52775 31.7912 1.23325 31.9372C0.938754 32.0832 0.679529 32.2981 0.475245 32.566C0.270961 32.834 0.126987 33.1476 0.0542507 33.4832C-0.0184858 33.8189 -0.0180771 34.168 0.0554512 34.5034C0.132825 40.4579 1.92148 46.2458 5.18316 51.0967C8.44484 55.9476 13.0247 59.6309 18.3127 61.6559C19.1587 63.4709 20.4494 65.0121 22.0499 66.1185C23.6503 67.2248 25.502 67.856 27.4113 67.9457C27.5701 67.9832 27.7325 68.0013 27.8952 67.9999C28.0074 67.9941 28.1191 67.9789 28.2291 67.9545C28.2491 67.9548 28.2691 67.9548 28.2891 67.9545C28.3005 67.9546 28.3119 67.9546 28.3233 67.9545C28.3824 67.942 28.441 67.9269 28.4989 67.9091C28.999 67.7529 29.4281 67.4086 29.7056 66.941C29.9831 66.4735 30.0899 65.9151 30.006 65.3701V63.3065C39.961 62.4903 48.8456 56.1646 53.1016 46.5151C55.087 41.9975 55.9464 37.0166 55.5979 32.0474C55.2494 27.0781 53.7045 22.2861 51.1106 18.1288H51.4103C56.1202 18.1288 59.9738 14.0477 59.9738 9.05968V2.61157C60.0219 2.28875 60.0036 1.95863 59.9201 1.64399C59.8366 1.32936 59.6899 1.03774 59.4899 0.788785C59.4871 0.788779 59.4842 0.788779 59.4814 0.788785C59.4393 0.736808 59.395 0.687063 59.3486 0.639331C59.3458 0.639325 59.3429 0.639325 59.3401 0.639331C59.3372 0.639325 59.3344 0.639325 59.3315 0.639331C59.2863 0.591783 59.2392 0.546259 59.1902 0.503162C58.7976 0.169287 58.3063 -0.00726181 57.8029 0.00442827V0ZM34.2835 4.57053H40.706C41.9263 4.57053 42.8469 5.54545 42.8469 6.8378C42.8469 7.43912 43.0725 8.01619 43.4739 8.44139C43.8754 8.86658 44.42 9.10507 44.9878 9.10507C45.5555 9.10507 46.1001 8.86658 46.5016 8.44139C46.9031 8.01619 47.1286 7.43912 47.1286 6.8378C47.1286 5.54545 48.0449 4.57053 49.2695 4.57053H55.692V9.10507C55.692 11.658 53.8166 13.6396 51.4103 13.6396H38.5652C36.1546 13.6396 34.2835 11.658 34.2835 9.10507V4.57053ZM47.1286 20.0789C49.4889 23.6147 50.9252 27.748 51.2921 32.0607C51.659 36.3733 50.9435 40.7124 49.2181 44.638C47.4667 48.5765 44.7704 51.9591 41.3985 54.4489C38.0265 56.9386 34.0968 58.4484 30.0018 58.8268V47.6487C30.0052 47.3456 29.9513 47.0448 29.8431 46.7642C29.7349 46.4835 29.5747 46.2292 29.3719 46.0152C29.1691 45.8013 28.9279 45.6322 28.6624 45.5187C28.397 45.4053 28.1128 45.3494 27.8266 45.3543C27.2603 45.3639 26.7207 45.6107 26.3258 46.0407C25.931 46.4707 25.7132 47.0489 25.72 47.6487V60.8261C25.6691 61.1077 25.6691 61.397 25.72 61.6786V63.1117C24.4637 62.6555 23.3745 61.793 22.6062 60.6457C21.8379 59.4984 21.4294 58.1243 21.4383 56.7178V47.6487C21.4418 47.3456 21.3878 47.0448 21.2797 46.7642C21.1715 46.4835 21.0112 46.2292 20.8085 46.0152C20.6057 45.8013 20.3644 45.6322 20.099 45.5187C19.8336 45.4053 19.5494 45.3494 19.2632 45.3543C18.6969 45.3639 18.1573 45.6107 17.7624 46.0407C17.3676 46.4707 17.1497 47.0489 17.1566 47.6487V56.2329C13.6124 54.3343 10.5854 51.5073 8.36341 48.0207C6.14141 44.5341 4.79817 40.5036 4.46134 36.3124H36.4243C42.316 36.3124 47.1286 31.2201 47.1286 24.976V20.0789ZM10.734 40.8469C10.1663 40.8469 9.62172 41.0859 9.22023 41.5111C8.81874 41.9363 8.59319 42.5129 8.59319 43.1142C8.59319 43.7155 8.81874 44.2926 9.22023 44.7178C9.62172 45.143 10.1663 45.3814 10.734 45.3814C11.3018 45.3814 11.8464 45.143 12.2479 44.7178C12.6494 44.2926 12.8749 43.7155 12.8749 43.1142C12.8749 42.5129 12.6494 41.9363 12.2479 41.5111C11.8464 41.0859 11.3018 40.8469 10.734 40.8469Z" fill="white"/>
</svg>
