<svg width="40" height="40" viewBox="0 0 60 60" fill="none" xmlns="http://www.w3.org/2000/svg">
<path d="M30.4209 31.5171C29.636 31.5081 28.8671 31.7354 28.2177 32.1684C27.5684 32.6014 27.0697 33.2193 26.7889 33.939C26.508 34.6587 26.4585 35.4456 26.6469 36.1937C26.8353 36.9419 27.2527 37.6154 27.8428 38.1237V41.6421C27.8428 42.3134 28.1144 42.9573 28.5979 43.432C29.0814 43.9067 29.7371 44.1733 30.4209 44.1733C31.1047 44.1733 31.7604 43.9067 32.2439 43.432C32.7274 42.9573 32.999 42.3134 32.999 41.6421V38.1237C33.5891 37.6154 34.0065 36.9419 34.1949 36.1937C34.3833 35.4456 34.3338 34.6587 34.0529 33.939C33.7721 33.2193 33.2734 32.6014 32.6241 32.1684C31.9747 31.7354 31.2058 31.5081 30.4209 31.5171ZM43.3115 21.3921V16.3296C43.3115 12.9729 41.9534 9.75378 39.5359 7.38027C37.1185 5.00676 33.8397 3.67334 30.4209 3.67334C27.0021 3.67334 23.7233 5.00676 21.3058 7.38027C18.8884 9.75378 17.5303 12.9729 17.5303 16.3296V21.3921C15.479 21.3921 13.5117 22.1921 12.0612 23.6163C10.6108 25.0404 9.7959 26.9719 9.7959 28.9858V46.7046C9.7959 48.7186 10.6108 50.6501 12.0612 52.0742C13.5117 53.4983 15.479 54.2983 17.5303 54.2983H43.3115C45.3628 54.2983 47.3301 53.4983 48.7805 52.0742C50.231 50.6501 51.0459 48.7186 51.0459 46.7046V28.9858C51.0459 26.9719 50.231 25.0404 48.7805 23.6163C47.3301 22.1921 45.3628 21.3921 43.3115 21.3921ZM22.6865 16.3296C22.6865 14.3156 23.5014 12.3841 24.9519 10.96C26.4023 9.53589 28.3696 8.73584 30.4209 8.73584C32.4722 8.73584 34.4394 9.53589 35.8899 10.96C37.3404 12.3841 38.1553 14.3156 38.1553 16.3296V21.3921H22.6865V16.3296ZM45.8896 46.7046C45.8896 47.3759 45.618 48.0198 45.1345 48.4945C44.651 48.9692 43.9953 49.2358 43.3115 49.2358H17.5303C16.8465 49.2358 16.1908 48.9692 15.7073 48.4945C15.2238 48.0198 14.9521 47.3759 14.9521 46.7046V28.9858C14.9521 28.3145 15.2238 27.6707 15.7073 27.196C16.1908 26.7213 16.8465 26.4546 17.5303 26.4546H43.3115C43.9953 26.4546 44.651 26.7213 45.1345 27.196C45.618 27.6707 45.8896 28.3145 45.8896 28.9858V46.7046Z" fill="white"/>
</svg>
