<svg width="16" height="18" viewBox="0 0 16 18" fill="none" xmlns="http://www.w3.org/2000/svg">
<path d="M8 9.9C7.71458 9.8968 7.43498 9.97761 7.19885 10.1316C6.96272 10.2855 6.78139 10.5052 6.67926 10.7611C6.57714 11.017 6.55912 11.2968 6.62764 11.5628C6.69616 11.8288 6.84792 12.0683 7.0625 12.249V13.5C7.0625 13.7387 7.16127 13.9676 7.33709 14.1364C7.5129 14.3052 7.75136 14.4 8 14.4C8.24864 14.4 8.4871 14.3052 8.66291 14.1364C8.83873 13.9676 8.9375 13.7387 8.9375 13.5V12.249C9.15208 12.0683 9.30384 11.8288 9.37236 11.5628C9.44088 11.2968 9.42286 11.017 9.32074 10.7611C9.21861 10.5052 9.03728 10.2855 8.80115 10.1316C8.56502 9.97761 8.28542 9.8968 8 9.9ZM12.6875 6.3V4.5C12.6875 3.30653 12.1936 2.16193 11.3146 1.31802C10.4355 0.474106 9.2432 0 8 0C6.7568 0 5.56451 0.474106 4.68544 1.31802C3.80636 2.16193 3.3125 3.30653 3.3125 4.5V6.3C2.56658 6.3 1.85121 6.58446 1.32376 7.09081C0.796316 7.59716 0.5 8.28392 0.5 9V15.3C0.5 16.0161 0.796316 16.7028 1.32376 17.2092C1.85121 17.7155 2.56658 18 3.3125 18H12.6875C13.4334 18 14.1488 17.7155 14.6762 17.2092C15.2037 16.7028 15.5 16.0161 15.5 15.3V9C15.5 8.28392 15.2037 7.59716 14.6762 7.09081C14.1488 6.58446 13.4334 6.3 12.6875 6.3ZM5.1875 4.5C5.1875 3.78392 5.48382 3.09716 6.01126 2.59081C6.53871 2.08446 7.25408 1.8 8 1.8C8.74592 1.8 9.46129 2.08446 9.98874 2.59081C10.5162 3.09716 10.8125 3.78392 10.8125 4.5V6.3H5.1875V4.5ZM13.625 15.3C13.625 15.5387 13.5262 15.7676 13.3504 15.9364C13.1746 16.1052 12.9361 16.2 12.6875 16.2H3.3125C3.06386 16.2 2.8254 16.1052 2.64959 15.9364C2.47377 15.7676 2.375 15.5387 2.375 15.3V9C2.375 8.7613 2.47377 8.53239 2.64959 8.3636C2.8254 8.19482 3.06386 8.1 3.3125 8.1H12.6875C12.9361 8.1 13.1746 8.19482 13.3504 8.3636C13.5262 8.53239 13.625 8.7613 13.625 9V15.3Z" fill="#2D70D6"/>
</svg>
